<svg xmlns="http://www.w3.org/2000/svg" width="512" height="512" viewBox="0 0 512 512" style="overflow: visible;" data-bbox="83.605 65.627 344.789 380.745">
    <rect data-uid="o_fd726172g_6" data-fl-background="" x="0" y="0" width="512" height="512" fill="#000000"></rect>
    <g transform="matrix(0.5692937320009313, 0, 0, 0.5692937320009313, 86.63511690140618, -25.80981489723871)" data-uid="o_fd726172g_7" fill="#fec934">
        <svg version="1.1" id="Calque_1"
            xmlns="http://www.w3.org/2000/svg" x="0px" y="0px" viewBox="0 0 595.28 841.89" enable-background="new 0 0 595.28 841.89" width="595.28" height="841.89" data-uid="o_fd726172g_8">
            <g data-uid="o_fd726172g_9">
                <g data-uid="o_fd726172g_10">
                    <g data-uid="o_fd726172g_11">
                        <g data-uid="o_fd726172g_12">
                            <path class="st0" d="M499.77 371.71c-19.81 0-36.88 11.71-44.69 28.58h-62.56v41.32h62.56c7.81 16.87 24.88 28.57 44.69 28.57
					c27.2 0 49.23-22.04 49.23-49.24C549 393.75 526.96 371.71 499.77 371.71z M454.44 430c-5 0-9.05-4.05-9.05-9.05
					c0-5 4.05-9.05 9.05-9.05c5 0 9.05 4.05 9.05 9.05C463.49 425.94 459.44 430 454.44 430z M522.76 434.35l-22.65 13.41
					l-22.65-13.41v-26.82l22.65-13.41l22.65 13.41V434.35z" fill="#fec934" data-uid="o_fd726172g_13"></path>
                        </g>
                        <g data-uid="o_fd726172g_14">
                            <path class="st0" d="M188.14 400.28h-53.27c-7.81-16.87-24.87-28.58-44.69-28.58c-19.42 0-36.16 11.27-44.18 27.61h36.44
					l17.14 23.32l-17.14 23.32H47.82c8.57 14.48 24.31 24.23 42.36 24.23c19.82 0 36.88-11.71 44.69-28.57h53.27V400.28z
					 M139.41 430c-5 0-9.05-4.05-9.05-9.05c0-5 4.05-9.05 9.05-9.05s9.05 4.05 9.05 9.05C148.46 425.94 144.41 430 139.41 430z" fill="#fec934" data-uid="o_fd726172g_15"></path>
                        </g>
                    </g>
                </g>
                <g data-uid="o_fd726172g_16">
                    <g data-uid="o_fd726172g_17">
                        <path class="st0" d="M433.79 380.24c-2.43 0-4.69-1.53-5.51-3.94c-19.11-56.2-71.85-93.95-131.25-93.95
				c-58.27 0-110.69 36.82-130.43 91.64c-1.05 2.91-4.21 4.54-7.18 3.61c-2.96-0.9-4.71-3.95-3.96-6.96l0.01-0.03
				c21.58-59.97 78.39-99.89 141.55-99.89c64.38 0 121.55 40.93 142.27 101.84c1.03 3.05-0.59 6.35-3.64 7.39
				C435.04 380.14 434.41 380.24 433.79 380.24z" fill="#fec934" data-uid="o_fd726172g_18"></path>
                    </g>
                    <g data-uid="o_fd726172g_19">
                        <path class="st0" d="M297.04 571.29c-63.16 0-119.98-39.92-141.38-99.32l5.46-2.01l5.65-1.41l0.01 0.03
				c19.58 54.24 71.99 91.07 130.26 91.07c59.39 0 112.14-37.76 131.25-93.95c1.04-3.04 4.32-4.68 7.38-3.64
				c3.04 1.04 4.67 4.34 3.64 7.39C418.59 530.36 361.42 571.29 297.04 571.29z" fill="#fec934" data-uid="o_fd726172g_20"></path>
                    </g>
                </g>
                <g data-uid="o_fd726172g_21">
                    <g data-uid="o_fd726172g_22">
                        <path class="st1" d="M499.5 342.16c-2.01 0-3.97-1.04-5.04-2.91l-23.88-41.35l-30.55 17.64c-2.5 1.45-5.68 0.84-7.48-1.43
				c-7.93-10.03-16.97-19.2-26.88-27.24c-2.22-1.81-2.8-4.95-1.37-7.43l17.81-30.86L385.8 227.6l-17.62 30.52
				c-1.45 2.51-4.53 3.56-7.2 2.49c-11.9-4.75-24.31-8.17-36.89-10.15c-2.83-0.45-4.92-2.88-4.92-5.75v-35.59h-41.94v35.27
				c0 2.89-2.13 5.35-4.99 5.76c-12.65 1.81-25.1 5.06-37.02 9.64c-2.68 0.99-5.7-0.05-7.13-2.53l-17.8-30.83l-36.31 20.97
				l17.63 30.55c1.45 2.5 0.84 5.68-1.43 7.47c-10.05 7.94-19.21 16.98-27.23 26.88c-1.8 2.22-4.94 2.81-7.43 1.37l-30.86-17.82
				l-23.88 41.35c-1.61 2.78-5.17 3.76-7.95 2.13c-2.79-1.6-3.74-5.17-2.13-7.95L117.5 285c0.77-1.34 2.04-2.32 3.53-2.71
				c1.49-0.38 3.07-0.19 4.42 0.59l31.66 18.28c6.68-7.8 14.04-15.07 21.96-21.68L161 248.18c-1.61-2.78-0.65-6.35 2.13-7.95
				l46.39-26.79c1.33-0.78 2.93-0.97 4.42-0.59c1.49 0.4 2.76 1.37 3.53 2.71l18.26 31.63c9.71-3.43 19.72-6.03 29.87-7.78v-36.12
				c0-3.21 2.6-5.82 5.82-5.82H325c3.21 0 5.82 2.6 5.82 5.82v36.51c10.11 1.87 20.09 4.61 29.77 8.19l18.05-31.26
				c0.77-1.34 2.04-2.32 3.53-2.71c1.5-0.37 3.08-0.2 4.42 0.59l46.4 26.79c2.78 1.6 3.74 5.17 2.13 7.95l-18.27 31.66
				c7.81 6.69 15.07 14.06 21.67 21.96l31.29-18.06c2.78-1.62 6.34-0.65 7.95 2.13l26.79 46.39c1.61 2.78 0.66 6.34-2.13 7.95
				C501.49 341.91 500.49 342.16 499.5 342.16z" fill="#fec934" data-uid="o_fd726172g_23"></path>
                    </g>
                    <g data-uid="o_fd726172g_24">
                        <path class="st1" d="M325 644.51h-53.58c-3.21 0-5.82-2.6-5.82-5.82v-36.12c-10.15-1.75-20.16-4.35-29.87-7.78l-18.26 31.63
				c-0.77 1.34-2.04 2.32-3.53 2.71c-1.49 0.38-3.08 0.19-4.42-0.59l-46.39-26.79c-2.78-1.6-3.74-5.17-2.13-7.95l18.07-31.29
				c-7.91-6.61-15.27-13.88-21.96-21.68l-31.66 18.28c-1.34 0.78-2.93 0.97-4.42 0.59c-1.49-0.4-2.76-1.37-3.53-2.71l-26.79-46.39
				c-1.61-2.78-0.66-6.35 2.13-7.95c2.78-1.63 6.34-0.65 7.95 2.13l23.88 41.35l30.86-17.82c2.49-1.43 5.63-0.86 7.43 1.37
				c8.02 9.9 17.19 18.94 27.23 26.88c2.26 1.79 2.88 4.97 1.43 7.47l-17.63 30.55l36.31 20.97l17.8-30.83
				c1.43-2.49 4.45-3.54 7.13-2.53c11.92 4.58 24.37 7.82 37.02 9.64c2.87 0.41 4.99 2.87 4.99 5.76v35.27h41.94v-35.59
				c0-2.87 2.08-5.3 4.92-5.75c12.58-1.98 25-5.39 36.89-10.15c2.67-1.06 5.75-0.02 7.2 2.49l17.62 30.52l36.32-20.97l-17.81-30.86
				c-1.43-2.48-0.85-5.62 1.37-7.43c9.91-8.04 18.95-17.2 26.88-27.24c1.8-2.27 4.98-2.88 7.48-1.43l30.55 17.64l23.88-41.35
				c1.6-2.78 5.17-3.75 7.95-2.13c2.79 1.6 3.74 5.17 2.13 7.95l-26.79 46.39c-1.61 2.78-5.17 3.75-7.95 2.13l-31.29-18.06
				c-6.6 7.91-13.86 15.27-21.67 21.96l18.27 31.66c1.61 2.78 0.65 6.35-2.13 7.95l-46.4 26.79c-1.33 0.77-2.92 0.97-4.42 0.59
				c-1.49-0.4-2.76-1.37-3.53-2.71L360.59 594c-9.69 3.57-19.66 6.31-29.77 8.19v36.51C330.82 641.91 328.21 644.51 325 644.51z" fill="#fec934" data-uid="o_fd726172g_25"></path>
                    </g>
                </g>
                <g data-uid="o_fd726172g_26">
                    <g data-uid="o_fd726172g_27">
                        <g data-uid="o_fd726172g_28">
                            <path class="st1" d="M343.82 455.55c0 10.1 8.22 18.32 18.32 18.32c10.1 0 18.32-8.22 18.32-18.32v-88.61
					c0-0.4 0.01-0.91 0.03-1.48c0.09-3.52 0.28-10.85-3.23-14.45c-1.63-1.68-4.09-2.49-7.51-2.49c-5.58 0-9.85 1.55-13.98 3.05
					c-6.7 2.43-15.04 5.47-23.83-3.58c-8.17-8.42-18.36-7.22-24.37-2.55c-10.02 7.79-18.6 8.87-35.33 4.43
					c-9.71-2.58-14.12 1.23-20.78 7c-1.42 1.23-2.86 2.47-4.38 3.67c-8.19 6.5-14.11 3.59-18.87 1.26
					c-2.92-1.43-5.93-2.91-10.7-3.43c-4.68-0.5-9.25 0.98-12.84 4.2c-3.49 3.13-5.66 7.6-5.66 11.66v74.06
					c0 10.1 8.22 18.32 18.32 18.32c10.1 0 18.32-8.22 18.32-18.32v-46.29c0-3.21 2.61-5.82 5.82-5.82c3.21 0 5.82 2.61 5.82 5.82
					v46.29v4.59v2.68c0 10.1 8.22 18.32 18.32 18.32c10.1 0 18.32-8.22 18.32-18.32c0-0.12 0.03-0.22 0.03-0.34v-53.22
					c0-3.21 2.61-5.82 5.82-5.82c3.21 0 5.82 2.61 5.82 5.82v54.23c0.36 9.79 8.41 17.64 18.28 17.64c9.72 0 17.67-7.62 18.26-17.19
					v-54.68c0-3.21 2.61-5.82 5.82-5.82c3.21 0 5.82 2.61 5.82 5.82v53C343.78 455.18 343.82 455.36 343.82 455.55z" fill="#fec934" data-uid="o_fd726172g_29"></path>
                        </g>
                        <g data-uid="o_fd726172g_30">
                            <path class="st1" d="M391.77 459.7c-2.03 14.56-14.53 25.81-29.64 25.81c-9.89 0-18.68-4.82-24.14-12.23
					c-5.46 7.41-14.24 12.23-24.14 12.23c-6.36 0-12.26-2.01-17.11-5.41v4.24c0 11.91 9.66 21.57 21.57 21.57h62.08
					c11.97 0 21.68-9.71 21.68-21.68V459.7H391.77z" fill="#fec934" data-uid="o_fd726172g_31"></path>
                        </g>
                    </g>
                    <g data-uid="o_fd726172g_32">
                        <g data-uid="o_fd726172g_33">
                            <path class="st1" fill="#fec934" data-type="circle" data-cx="297.45" data-cy="233.88" data-r="6.28" d="M297.45 233.88m-6.28 0a6.28 6.28 0 1 0 12.56 0a6.28 6.28 0 1 0 -12.56 0" data-uid="o_fd726172g_34"></path>
                        </g>
                        <g data-uid="o_fd726172g_35">
                            <path class="st1" fill="#fec934" data-type="circle" data-cx="389.58" data-cy="263.54" data-r="6.28" d="M389.58 263.54m-6.28 0a6.28 6.28 0 1 0 12.56 0a6.28 6.28 0 1 0 -12.56 0" data-uid="o_fd726172g_36"></path>
                        </g>
                        <g data-uid="o_fd726172g_37">
                            <path class="st1" fill="#fec934" data-type="circle" data-cx="207.76" data-cy="263.54" data-r="6.28" d="M207.76 263.54m-6.28 0a6.28 6.28 0 1 0 12.56 0a6.28 6.28 0 1 0 -12.56 0" data-uid="o_fd726172g_38"></path>
                        </g>
                        <g data-uid="o_fd726172g_39">
                            <path class="st1" fill="#fec934" data-type="circle" data-cx="136.1" data-cy="337.58" data-r="6.28" d="M136.1 337.58m-6.28 0a6.28 6.28 0 1 0 12.56 0a6.28 6.28 0 1 0 -12.56 0" data-uid="o_fd726172g_40"></path>
                        </g>
                        <g data-uid="o_fd726172g_41">
                            <path class="st1" fill="#fec934" data-type="circle" data-cx="455.01" data-cy="337.58" data-r="6.28" d="M455.01 337.58m-6.28 0a6.28 6.28 0 1 0 12.56 0a6.28 6.28 0 1 0 -12.56 0" data-uid="o_fd726172g_42"></path>
                        </g>
                    </g>
                    <g data-uid="o_fd726172g_43">
                        <g data-uid="o_fd726172g_44">
                            <path class="st1" fill="#fec934" data-type="circle" data-cx="297.45" data-cy="608.12" data-r="6.28" d="M297.45 608.12m-6.28 0a6.28 6.28 0 1 0 12.56 0a6.28 6.28 0 1 0 -12.56 0" data-uid="o_fd726172g_45"></path>
                        </g>
                        <g data-uid="o_fd726172g_46">
                            <path class="st1" fill="#fec934" data-type="circle" data-cx="389.58" data-cy="578.46" data-r="6.28" d="M389.58 578.46m-6.28 0a6.28 6.28 0 1 0 12.56 0a6.28 6.28 0 1 0 -12.56 0" data-uid="o_fd726172g_47"></path>
                        </g>
                        <g data-uid="o_fd726172g_48">
                            <path class="st1" fill="#fec934" data-type="circle" data-cx="207.76" data-cy="578.46" data-r="6.28" d="M207.76 578.46m-6.28 0a6.28 6.28 0 1 0 12.56 0a6.28 6.28 0 1 0 -12.56 0" data-uid="o_fd726172g_49"></path>
                        </g>
                        <g data-uid="o_fd726172g_50">
                            <path class="st1" fill="#fec934" data-type="circle" data-cx="136.1" data-cy="504.42" data-r="6.28" d="M136.1 504.42m-6.28 0a6.28 6.28 0 1 0 12.56 0a6.28 6.28 0 1 0 -12.56 0" data-uid="o_fd726172g_51"></path>
                        </g>
                        <g data-uid="o_fd726172g_52">
                            <path class="st1" fill="#fec934" data-type="circle" data-cx="455.01" data-cy="504.42" data-r="6.28" d="M455.01 504.42m-6.28 0a6.28 6.28 0 1 0 12.56 0a6.28 6.28 0 1 0 -12.56 0" data-uid="o_fd726172g_53"></path>
                        </g>
                    </g>
                </g>
            </g>
        </svg>
    </g>
    <path text="Python Collection" fill="#fec934" space="preserve" text-anchor="middle" offset="0.5" font-scale="contain" font-size="48" font-family="Teko" transform="matrix(0.8739464613569907, 0, 0, 0.8739464613569907, 255.80773071167232, 419.6058476166354)" font-style="normal" font-weight="400" letter-spacing="4" data-fl-textpath="" data-uid="o_fd726172g_55" d="M-152.62 0L-152.62-30.05L-142.78-30.05Q-138.32-30.05 -138.32-25.82L-138.32-25.82L-138.32-15.84Q-138.32-11.62 -142.78-11.62L-142.78-11.62L-148.3-11.62L-148.3 0L-152.62 0ZM-142.64-16.51L-142.64-16.51L-142.64-25.15Q-142.64-26.02 -142.93-26.28Q-143.22-26.54 -144.08-26.54L-144.08-26.54L-148.3-26.54L-148.3-15.07L-144.08-15.07Q-143.22-15.07 -142.93-15.36Q-142.64-15.65 -142.64-16.51ZM-127.406 6.62L-127.406 6.62L-130.286 6.62L-130.286 3.17L-128.316 3.17Q-126.256 3.17 -125.826 1.58L-125.826 1.58L-125.346-0.38L-127.696-0.38L-132.596-23.42L-128.176-23.42L-124.626-3.79L-121.316-23.42L-116.946-23.42L-121.886 2.26Q-122.946 6.62 -127.406 6.62ZM-102.53-23.42L-102.53-19.92L-105.74-19.92L-105.74-5.09Q-105.74-4.22 -105.48-3.96Q-105.22-3.7 -104.35-3.7L-104.35-3.7L-102.53-3.7L-102.53 0L-105.6 0Q-110.11 0 -110.11-4.22L-110.11-4.22L-110.11-19.92L-112.32-19.92L-112.32-23.42L-110.11-23.42L-110.11-27.41L-105.74-27.41L-105.74-23.42L-102.53-23.42ZM-88.638-23.42L-88.638-23.42L-86.958-23.42Q-82.588-23.42 -82.588-19.15L-82.588-19.15L-82.588 0L-86.908 0L-86.908-18.53Q-86.908-19.39 -87.198-19.66Q-87.488-19.92 -88.348-19.92L-88.348-19.92L-90.028-19.92Q-90.898-19.92 -91.258-19.54Q-91.618-19.15 -91.618-18.24L-91.618-18.24L-91.618 0L-95.938 0L-95.938-32.11L-91.618-32.11L-91.618-21.55Q-90.988-23.42 -88.638-23.42ZM-70.238-23.42L-70.238-23.42L-65.108-23.42Q-60.638-23.42 -60.638-19.15L-60.638-19.15L-60.638-4.22Q-60.638 0 -65.108 0L-65.108 0L-70.238 0Q-74.658 0 -74.658-4.22L-74.658-4.22L-74.658-19.15Q-74.658-23.42 -70.238-23.42ZM-64.908-4.85L-64.908-4.85L-64.908-18.58Q-64.908-19.44 -65.198-19.73Q-65.488-20.02 -66.348-20.02L-66.348-20.02L-68.988-20.02Q-69.858-20.02 -70.118-19.73Q-70.388-19.44 -70.388-18.58L-70.388-18.58L-70.388-4.85Q-70.388-3.98 -70.118-3.7Q-69.858-3.41 -68.988-3.41L-68.988-3.41L-66.348-3.41Q-65.488-3.41 -65.198-3.7Q-64.908-3.98 -64.908-4.85ZM-45.358-23.42L-45.358-23.42L-43.678-23.42Q-39.308-23.42 -39.308-19.15L-39.308-19.15L-39.308 0L-43.628 0L-43.628-18.53Q-43.628-19.39 -43.918-19.66Q-44.208-19.92 -45.068-19.92L-45.068-19.92L-46.748-19.92Q-47.618-19.92 -47.978-19.54Q-48.338-19.15 -48.338-18.24L-48.338-18.24L-48.338 0L-52.658 0L-52.658-23.42L-48.338-23.42L-48.338-21.55Q-47.708-23.42 -45.358-23.42ZM-5.968-25.82L-5.968-20.64L-10.388-20.64L-10.388-25.25Q-10.388-26.11 -10.648-26.38Q-10.908-26.64 -11.778-26.64L-11.778-26.64L-14.228-26.64Q-15.088-26.64 -15.378-26.38Q-15.668-26.11 -15.668-25.25L-15.668-25.25L-15.668-4.75Q-15.668-3.89 -15.378-3.62Q-15.088-3.36 -14.228-3.36L-14.228-3.36L-11.778-3.36Q-10.908-3.36 -10.648-3.62Q-10.388-3.89 -10.388-4.75L-10.388-4.75L-10.388-9.31L-5.968-9.31L-5.968-4.22Q-5.968 0.05 -10.478 0.05L-10.478 0.05L-15.568 0.05Q-20.028 0.05 -20.028-4.22L-20.028-4.22L-20.028-25.82Q-20.028-30.05 -15.568-30.05L-15.568-30.05L-10.478-30.05Q-5.968-30.05 -5.968-25.82L-5.968-25.82ZM 6.098-23.42L 6.098-23.42L 11.228-23.42Q 15.698-23.42  15.698-19.15L 15.698-19.15L 15.698-4.22Q 15.698 0  11.228 0L 11.228 0L 6.098 0Q 1.678 0  1.678-4.22L 1.678-4.22L 1.678-19.15Q 1.678-23.42  6.098-23.42ZM 11.428-4.85L 11.428-4.85L 11.428-18.58Q 11.428-19.44  11.138-19.73Q 10.848-20.02  9.988-20.02L 9.988-20.02L 7.348-20.02Q 6.478-20.02  6.218-19.73Q 5.948-19.44  5.948-18.58L 5.948-18.58L 5.948-4.85Q 5.948-3.98  6.218-3.7Q 6.478-3.41  7.348-3.41L 7.348-3.41L 9.988-3.41Q 10.848-3.41  11.138-3.7Q 11.428-3.98  11.428-4.85ZM 27.998-32.11L 27.998 0L 23.678 0L 23.678-32.11L 27.998-32.11ZM 40.542-32.11L 40.542 0L 36.222 0L 36.222-32.11L 40.542-32.11ZM 53.136-23.42L 53.136-23.42L 57.836-23.42Q 62.356-23.42  62.356-19.15L 62.356-19.15L 62.356-10.37L 52.896-10.37L 52.896-4.8Q 52.896-3.98  53.186-3.7Q 53.476-3.41  54.336-3.41L 54.336-3.41L 56.546-3.41Q 57.406-3.41  57.696-3.7Q 57.986-3.98  57.986-4.85L 57.986-4.85L 57.986-6.77L 62.206-6.77L 62.206-4.22Q 62.206 0  57.746 0L 57.746 0L 53.136 0Q 48.676 0  48.676-4.22L 48.676-4.22L 48.676-19.15Q 48.676-23.42  53.136-23.42ZM 52.896-18.62L 52.896-13.54L 58.076-13.54L 58.076-18.62Q 58.076-19.44  57.816-19.73Q 57.556-20.02  56.686-20.02L 56.686-20.02L 54.336-20.02Q 53.476-20.02  53.186-19.73Q 52.896-19.44  52.896-18.62L 52.896-18.62ZM 83.296-19.15L 83.296-16.03L 79.026-16.03L 79.026-18.53Q 79.026-19.39  78.736-19.66Q 78.446-19.92  77.586-19.92L 77.586-19.92L 75.516-19.92Q 74.656-19.92  74.366-19.66Q 74.076-19.39  74.076-18.53L 74.076-18.53L 74.076-4.9Q 74.076-4.03  74.366-3.77Q 74.656-3.5  75.516-3.5L 75.516-3.5L 77.586-3.5Q 78.446-3.5  78.736-3.77Q 79.026-4.03  79.026-4.9L 79.026-4.9L 79.026-7.39L 83.296-7.39L 83.296-4.22Q 83.296 0  78.786 0L 78.786 0L 74.226 0Q 69.756 0  69.756-4.22L 69.756-4.22L 69.756-19.15Q 69.756-23.42  74.226-23.42L 74.226-23.42L 78.786-23.42Q 83.296-23.42  83.296-19.15L 83.296-19.15ZM 98.814-23.42L 98.814-19.92L 95.604-19.92L 95.604-5.09Q 95.604-4.22  95.864-3.96Q 96.124-3.7  96.994-3.7L 96.994-3.7L 98.814-3.7L 98.814 0L 95.744 0Q 91.234 0  91.234-4.22L 91.234-4.22L 91.234-19.92L 89.024-19.92L 89.024-23.42L 91.234-23.42L 91.234-27.41L 95.604-27.41L 95.604-23.42L 98.814-23.42ZM 109.826-27.89L 105.316-27.89L 105.316-32.16L 109.826-32.16L 109.826-27.89ZM 109.726-23.42L 109.726 0L 105.406 0L 105.406-23.42L 109.726-23.42ZM 122.13-23.42L 122.13-23.42L 127.26-23.42Q 131.73-23.42  131.73-19.15L 131.73-19.15L 131.73-4.22Q 131.73 0  127.26 0L 127.26 0L 122.13 0Q 117.71 0  117.71-4.22L 117.71-4.22L 117.71-19.15Q 117.71-23.42  122.13-23.42ZM 127.46-4.85L 127.46-4.85L 127.46-18.58Q 127.46-19.44  127.17-19.73Q 126.88-20.02  126.02-20.02L 126.02-20.02L 123.38-20.02Q 122.51-20.02  122.25-19.73Q 121.98-19.44  121.98-18.58L 121.98-18.58L 121.98-4.85Q 121.98-3.98  122.25-3.7Q 122.51-3.41  123.38-3.41L 123.38-3.41L 126.02-3.41Q 126.88-3.41  127.17-3.7Q 127.46-3.98  127.46-4.85ZM 147.01-23.42L 147.01-23.42L 148.69-23.42Q 153.06-23.42  153.06-19.15L 153.06-19.15L 153.06 0L 148.74 0L 148.74-18.53Q 148.74-19.39  148.45-19.66Q 148.16-19.92  147.3-19.92L 147.3-19.92L 145.62-19.92Q 144.75-19.92  144.39-19.54Q 144.03-19.15  144.03-18.24L 144.03-18.24L 144.03 0L 139.71 0L 139.71-23.42L 144.03-23.42L 144.03-21.55Q 144.66-23.42  147.01-23.42Z"></path>
</svg>