<svg xmlns="http://www.w3.org/2000/svg" width="512" height="512" viewBox="0 0 512 512" style="overflow: visible;"><rect data-uid="o-f708daf5d394415899efa7d50a8218c7" data-fl-background="" x="0" y="0" width="512" height="512" fill="#000000"></rect><g transform="matrix(0.569296122678951, 0, 0, 0.569296122678951, 86.63440567470448, -22.158597266806012)" data-uid="o-8bdc27c60ef6429c9569263d63c9a29e" fill="#fec934"><svg version="1.1" id="Calque_1" xmlns="http://www.w3.org/2000/svg" x="0px" y="0px" viewBox="0 0 595.28 841.89" enable-background="new 0 0 595.28 841.89" width="595.28" height="841.89" data-uid="o-b2d1d25f318e449b95810e724314b9a6"><g data-uid="o-dd632cfcb7704e6a827bab63dc6185b3"><g data-uid="o-bfff5a3222db420b8b60b2fd07099b0c"><g data-uid="o-845ab74ea7874287a2150a39625c5040"><g data-uid="o-cf97a923279245bbb5524061fff6e38b"><path class="st0" d="M499.77 371.71c-19.81 0-36.88 11.71-44.69 28.58h-62.56v41.32h62.56c7.81 16.87 24.88 28.57 44.69 28.57
					c27.2 0 49.23-22.04 49.23-49.24C549 393.75 526.96 371.71 499.77 371.71z M454.44 430c-5 0-9.05-4.05-9.05-9.05
					c0-5 4.05-9.05 9.05-9.05c5 0 9.05 4.05 9.05 9.05C463.49 425.94 459.44 430 454.44 430z M522.76 434.35l-22.65 13.41
					l-22.65-13.41v-26.82l22.65-13.41l22.65 13.41V434.35z" fill="#fec934" data-uid="o-e6730820373c4e41b1c48c02fc27f005"></path></g><g data-uid="o-5c4ea730fb2b4517b4c92c83532a0b09"><path class="st0" d="M188.14 400.28h-53.27c-7.81-16.87-24.87-28.58-44.69-28.58c-19.42 0-36.16 11.27-44.18 27.61h36.44
					l17.14 23.32l-17.14 23.32H47.82c8.57 14.48 24.31 24.23 42.36 24.23c19.82 0 36.88-11.71 44.69-28.57h53.27V400.28z
					 M139.41 430c-5 0-9.05-4.05-9.05-9.05c0-5 4.05-9.05 9.05-9.05s9.05 4.05 9.05 9.05C148.46 425.94 144.41 430 139.41 430z" fill="#fec934" data-uid="o-c927165407db4607afd70ea0c0909081"></path></g></g></g><g data-uid="o-375c1b376710457e93e1dcf7b646f0ea"><g data-uid="o-d2260af39d6f4aa9b4ce9c6fa44e12db"><path class="st0" d="M433.79 380.24c-2.43 0-4.69-1.53-5.51-3.94c-19.11-56.2-71.85-93.95-131.25-93.95
				c-58.27 0-110.69 36.82-130.43 91.64c-1.05 2.91-4.21 4.54-7.18 3.61c-2.96-0.9-4.71-3.95-3.96-6.96l0.01-0.03
				c21.58-59.97 78.39-99.89 141.55-99.89c64.38 0 121.55 40.93 142.27 101.84c1.03 3.05-0.59 6.35-3.64 7.39
				C435.04 380.14 434.41 380.24 433.79 380.24z" fill="#fec934" data-uid="o-28a440407029427fb242123525abcfe9"></path></g><g data-uid="o-6b3a072dd60e4183907245a12ca9fea6"><path class="st0" d="M297.04 571.29c-63.16 0-119.98-39.92-141.38-99.32l5.46-2.01l5.65-1.41l0.01 0.03
				c19.58 54.24 71.99 91.07 130.26 91.07c59.39 0 112.14-37.76 131.25-93.95c1.04-3.04 4.32-4.68 7.38-3.64
				c3.04 1.04 4.67 4.34 3.64 7.39C418.59 530.36 361.42 571.29 297.04 571.29z" fill="#fec934" data-uid="o-08a7ac0a96934d3886ce0d77760d2cf0"></path></g></g><g data-uid="o-03f003b5840d4251824dd7b476aaca5c"><g data-uid="o-cf8674ab4e784d8cab53755925329c5d"><path class="st1" d="M499.5 342.16c-2.01 0-3.97-1.04-5.04-2.91l-23.88-41.35l-30.55 17.64c-2.5 1.45-5.68 0.84-7.48-1.43
				c-7.93-10.03-16.97-19.2-26.88-27.24c-2.22-1.81-2.8-4.95-1.37-7.43l17.81-30.86L385.8 227.6l-17.62 30.52
				c-1.45 2.51-4.53 3.56-7.2 2.49c-11.9-4.75-24.31-8.17-36.89-10.15c-2.83-0.45-4.92-2.88-4.92-5.75v-35.59h-41.94v35.27
				c0 2.89-2.13 5.35-4.99 5.76c-12.65 1.81-25.1 5.06-37.02 9.64c-2.68 0.99-5.7-0.05-7.13-2.53l-17.8-30.83l-36.31 20.97
				l17.63 30.55c1.45 2.5 0.84 5.68-1.43 7.47c-10.05 7.94-19.21 16.98-27.23 26.88c-1.8 2.22-4.94 2.81-7.43 1.37l-30.86-17.82
				l-23.88 41.35c-1.61 2.78-5.17 3.76-7.95 2.13c-2.79-1.6-3.74-5.17-2.13-7.95L117.5 285c0.77-1.34 2.04-2.32 3.53-2.71
				c1.49-0.38 3.07-0.19 4.42 0.59l31.66 18.28c6.68-7.8 14.04-15.07 21.96-21.68L161 248.18c-1.61-2.78-0.65-6.35 2.13-7.95
				l46.39-26.79c1.33-0.78 2.93-0.97 4.42-0.59c1.49 0.4 2.76 1.37 3.53 2.71l18.26 31.63c9.71-3.43 19.72-6.03 29.87-7.78v-36.12
				c0-3.21 2.6-5.82 5.82-5.82H325c3.21 0 5.82 2.6 5.82 5.82v36.51c10.11 1.87 20.09 4.61 29.77 8.19l18.05-31.26
				c0.77-1.34 2.04-2.32 3.53-2.71c1.5-0.37 3.08-0.2 4.42 0.59l46.4 26.79c2.78 1.6 3.74 5.17 2.13 7.95l-18.27 31.66
				c7.81 6.69 15.07 14.06 21.67 21.96l31.29-18.06c2.78-1.62 6.34-0.65 7.95 2.13l26.79 46.39c1.61 2.78 0.66 6.34-2.13 7.95
				C501.49 341.91 500.49 342.16 499.5 342.16z" fill="#fec934" data-uid="o-f052d0bc789243869b8a3e48705722ea"></path></g><g data-uid="o-aa32d6b8542449bea7f9f81359d1c553"><path class="st1" d="M325 644.51h-53.58c-3.21 0-5.82-2.6-5.82-5.82v-36.12c-10.15-1.75-20.16-4.35-29.87-7.78l-18.26 31.63
				c-0.77 1.34-2.04 2.32-3.53 2.71c-1.49 0.38-3.08 0.19-4.42-0.59l-46.39-26.79c-2.78-1.6-3.74-5.17-2.13-7.95l18.07-31.29
				c-7.91-6.61-15.27-13.88-21.96-21.68l-31.66 18.28c-1.34 0.78-2.93 0.97-4.42 0.59c-1.49-0.4-2.76-1.37-3.53-2.71l-26.79-46.39
				c-1.61-2.78-0.66-6.35 2.13-7.95c2.78-1.63 6.34-0.65 7.95 2.13l23.88 41.35l30.86-17.82c2.49-1.43 5.63-0.86 7.43 1.37
				c8.02 9.9 17.19 18.94 27.23 26.88c2.26 1.79 2.88 4.97 1.43 7.47l-17.63 30.55l36.31 20.97l17.8-30.83
				c1.43-2.49 4.45-3.54 7.13-2.53c11.92 4.58 24.37 7.82 37.02 9.64c2.87 0.41 4.99 2.87 4.99 5.76v35.27h41.94v-35.59
				c0-2.87 2.08-5.3 4.92-5.75c12.58-1.98 25-5.39 36.89-10.15c2.67-1.06 5.75-0.02 7.2 2.49l17.62 30.52l36.32-20.97l-17.81-30.86
				c-1.43-2.48-0.85-5.62 1.37-7.43c9.91-8.04 18.95-17.2 26.88-27.24c1.8-2.27 4.98-2.88 7.48-1.43l30.55 17.64l23.88-41.35
				c1.6-2.78 5.17-3.75 7.95-2.13c2.79 1.6 3.74 5.17 2.13 7.95l-26.79 46.39c-1.61 2.78-5.17 3.75-7.95 2.13l-31.29-18.06
				c-6.6 7.91-13.86 15.27-21.67 21.96l18.27 31.66c1.61 2.78 0.65 6.35-2.13 7.95l-46.4 26.79c-1.33 0.77-2.92 0.97-4.42 0.59
				c-1.49-0.4-2.76-1.37-3.53-2.71L360.59 594c-9.69 3.57-19.66 6.31-29.77 8.19v36.51C330.82 641.91 328.21 644.51 325 644.51z" fill="#fec934" data-uid="o-f8be57b65d1a488a88a748a27427b44a"></path></g></g><g data-uid="o-6e7680343d254290b57fc46728087ee7"><g data-uid="o-87a1e1dac5a444529dfe074a45e8834f"><g data-uid="o-51c302c68adf4e11b9b44ff4d1f85151"><path class="st1" d="M343.82 455.55c0 10.1 8.22 18.32 18.32 18.32c10.1 0 18.32-8.22 18.32-18.32v-88.61
					c0-0.4 0.01-0.91 0.03-1.48c0.09-3.52 0.28-10.85-3.23-14.45c-1.63-1.68-4.09-2.49-7.51-2.49c-5.58 0-9.85 1.55-13.98 3.05
					c-6.7 2.43-15.04 5.47-23.83-3.58c-8.17-8.42-18.36-7.22-24.37-2.55c-10.02 7.79-18.6 8.87-35.33 4.43
					c-9.71-2.58-14.12 1.23-20.78 7c-1.42 1.23-2.86 2.47-4.38 3.67c-8.19 6.5-14.11 3.59-18.87 1.26
					c-2.92-1.43-5.93-2.91-10.7-3.43c-4.68-0.5-9.25 0.98-12.84 4.2c-3.49 3.13-5.66 7.6-5.66 11.66v74.06
					c0 10.1 8.22 18.32 18.32 18.32c10.1 0 18.32-8.22 18.32-18.32v-46.29c0-3.21 2.61-5.82 5.82-5.82c3.21 0 5.82 2.61 5.82 5.82
					v46.29v4.59v2.68c0 10.1 8.22 18.32 18.32 18.32c10.1 0 18.32-8.22 18.32-18.32c0-0.12 0.03-0.22 0.03-0.34v-53.22
					c0-3.21 2.61-5.82 5.82-5.82c3.21 0 5.82 2.61 5.82 5.82v54.23c0.36 9.79 8.41 17.64 18.28 17.64c9.72 0 17.67-7.62 18.26-17.19
					v-54.68c0-3.21 2.61-5.82 5.82-5.82c3.21 0 5.82 2.61 5.82 5.82v53C343.78 455.18 343.82 455.36 343.82 455.55z" fill="#fec934" data-uid="o-1e3ab4cd3d5643408ea3b50d1bd03e7f"></path></g><g data-uid="o-f502467f57e34664966bd8749d68e721"><path class="st1" d="M391.77 459.7c-2.03 14.56-14.53 25.81-29.64 25.81c-9.89 0-18.68-4.82-24.14-12.23
					c-5.46 7.41-14.24 12.23-24.14 12.23c-6.36 0-12.26-2.01-17.11-5.41v4.24c0 11.91 9.66 21.57 21.57 21.57h62.08
					c11.97 0 21.68-9.71 21.68-21.68V459.7H391.77z" fill="#fec934" data-uid="o-1e066ae15ba6444798cc60d38c572e14"></path></g></g><g data-uid="o-1af9c655b95b45f1b279dde74e0847d9"><g data-uid="o-1bd6085c972640de858ae6d72167423f"><path class="st1" fill="#fec934" data-type="circle" data-cx="297.45" data-cy="233.88" data-r="6.28" d="M297.45 233.88m-6.28 0a6.28 6.28 0 1 0 12.56 0a6.28 6.28 0 1 0 -12.56 0" data-uid="o-659adf81072e4b8e9e0cb99931083efa"></path></g><g data-uid="o-c58dd126719d4881aa61c02dc567c67a"><path class="st1" fill="#fec934" data-type="circle" data-cx="389.58" data-cy="263.54" data-r="6.28" d="M389.58 263.54m-6.28 0a6.28 6.28 0 1 0 12.56 0a6.28 6.28 0 1 0 -12.56 0" data-uid="o-4e145ed942a64996befa2a2d40a9506c"></path></g><g data-uid="o-6c0b760eeec441d4917522742e17b755"><path class="st1" fill="#fec934" data-type="circle" data-cx="207.76" data-cy="263.54" data-r="6.28" d="M207.76 263.54m-6.28 0a6.28 6.28 0 1 0 12.56 0a6.28 6.28 0 1 0 -12.56 0" data-uid="o-39b7de12af384967a53adbd9330bac31"></path></g><g data-uid="o-262d11525b0d4878b48859e84d8f79ae"><path class="st1" fill="#fec934" data-type="circle" data-cx="136.1" data-cy="337.58" data-r="6.28" d="M136.1 337.58m-6.28 0a6.28 6.28 0 1 0 12.56 0a6.28 6.28 0 1 0 -12.56 0" data-uid="o-ae623d7284524a5ba435ffbd99e6118d"></path></g><g data-uid="o-b0ec7dacc51b4e1b84455d53490ba7a5"><path class="st1" fill="#fec934" data-type="circle" data-cx="455.01" data-cy="337.58" data-r="6.28" d="M455.01 337.58m-6.28 0a6.28 6.28 0 1 0 12.56 0a6.28 6.28 0 1 0 -12.56 0" data-uid="o-8a385c7a4ce94c458668affec0ab429e"></path></g></g><g data-uid="o-946464cfb02048b5a3c1fb7aa3460633"><g data-uid="o-7470d527956041e5acaf9d746fb17800"><path class="st1" fill="#fec934" data-type="circle" data-cx="297.45" data-cy="608.12" data-r="6.28" d="M297.45 608.12m-6.28 0a6.28 6.28 0 1 0 12.56 0a6.28 6.28 0 1 0 -12.56 0" data-uid="o-430c69c4809b45eca1b1c0114f6828a3"></path></g><g data-uid="o-49c9df3b818c4ded8f4b2915a1b9e827"><path class="st1" fill="#fec934" data-type="circle" data-cx="389.58" data-cy="578.46" data-r="6.28" d="M389.58 578.46m-6.28 0a6.28 6.28 0 1 0 12.56 0a6.28 6.28 0 1 0 -12.56 0" data-uid="o-89272c12c2654b41a76342fa44c38e26"></path></g><g data-uid="o-e41102bfafc349a8a32809435d17a176"><path class="st1" fill="#fec934" data-type="circle" data-cx="207.76" data-cy="578.46" data-r="6.28" d="M207.76 578.46m-6.28 0a6.28 6.28 0 1 0 12.56 0a6.28 6.28 0 1 0 -12.56 0" data-uid="o-6fc5a6a90b64401a8523931175b1165f"></path></g><g data-uid="o-1c0b4f1a5d0147298b63ce2cf9bc34ed"><path class="st1" fill="#fec934" data-type="circle" data-cx="136.1" data-cy="504.42" data-r="6.28" d="M136.1 504.42m-6.28 0a6.28 6.28 0 1 0 12.56 0a6.28 6.28 0 1 0 -12.56 0" data-uid="o-9305f8dba3d34a1fb33d09de74b9d6b4"></path></g><g data-uid="o-e9a1d9e96347466bb2c2e15e315b56c2"><path class="st1" fill="#fec934" data-type="circle" data-cx="455.01" data-cy="504.42" data-r="6.28" d="M455.01 504.42m-6.28 0a6.28 6.28 0 1 0 12.56 0a6.28 6.28 0 1 0 -12.56 0" data-uid="o-b44341e3623d42b39087330b3137eb63"></path></g></g></g></g></svg></g><path text="Python Collections" fill="#fec934" space="preserve" text-anchor="middle" offset="0.5" font-scale="contain" font-size="58" font-family="Teko" transform="matrix(0.8739501313861482, 0, 0, 0.8739501313861482, 256.39852904779775, 425.76122470348884)" font-style="normal" font-weight="bold" letter-spacing="4" data-fl-textpath="" data-uid="o-0c38361f60ba452e801fc24c479b7ce8" d="M-189.266 0L-189.266-36.308L-177.376-36.308Q-171.982-36.308 -171.982-31.204L-171.982-31.204L-171.982-19.14Q-171.982-14.036 -177.376-14.036L-177.376-14.036L-184.046-14.036L-184.046 0L-189.266 0ZM-177.202-19.952L-177.202-19.952L-177.202-30.392Q-177.202-31.436 -177.55-31.755Q-177.898-32.074 -178.942-32.074L-178.942-32.074L-184.046-32.074L-184.046-18.212L-178.942-18.212Q-177.898-18.212 -177.55-18.56Q-177.202-18.908 -177.202-19.952ZM-159.63 8.004L-159.63 8.004L-163.11 8.004L-163.11 3.828L-160.732 3.828Q-158.238 3.828 -157.716 1.914L-157.716 1.914L-157.136-0.464L-159.978-0.464L-165.894-28.304L-160.558-28.304L-156.266-4.582L-152.264-28.304L-146.986-28.304L-152.96 2.726Q-154.236 8.004 -159.63 8.004ZM-130.4-28.304L-130.4-24.07L-134.286-24.07L-134.286-6.148Q-134.286-5.104 -133.967-4.785Q-133.648-4.466 -132.604-4.466L-132.604-4.466L-130.4-4.466L-130.4 0L-134.112 0Q-139.564 0 -139.564-5.104L-139.564-5.104L-139.564-24.07L-142.232-24.07L-142.232-28.304L-139.564-28.304L-139.564-33.118L-134.286-33.118L-134.286-28.304L-130.4-28.304ZM-114.452-28.304L-114.452-28.304L-112.422-28.304Q-107.144-28.304 -107.144-23.142L-107.144-23.142L-107.144 0L-112.364 0L-112.364-22.388Q-112.364-23.432 -112.712-23.751Q-113.06-24.07 -114.104-24.07L-114.104-24.07L-116.134-24.07Q-117.178-24.07 -117.613-23.606Q-118.048-23.142 -118.048-22.04L-118.048-22.04L-118.048 0L-123.268 0L-123.268-38.802L-118.048-38.802L-118.048-26.042Q-117.294-28.304 -114.452-28.304ZM-93.052-28.304L-93.052-28.304L-86.846-28.304Q-81.452-28.304 -81.452-23.142L-81.452-23.142L-81.452-5.104Q-81.452 0 -86.846 0L-86.846 0L-93.052 0Q-98.388 0 -98.388-5.104L-98.388-5.104L-98.388-23.142Q-98.388-28.304 -93.052-28.304ZM-86.614-5.858L-86.614-5.858L-86.614-22.446Q-86.614-23.49 -86.962-23.838Q-87.31-24.186 -88.354-24.186L-88.354-24.186L-91.544-24.186Q-92.588-24.186 -92.907-23.838Q-93.226-23.49 -93.226-22.446L-93.226-22.446L-93.226-5.858Q-93.226-4.814 -92.907-4.466Q-92.588-4.118 -91.544-4.118L-91.544-4.118L-88.354-4.118Q-87.31-4.118 -86.962-4.466Q-86.614-4.814 -86.614-5.858ZM-63.822-28.304L-63.822-28.304L-61.792-28.304Q-56.514-28.304 -56.514-23.142L-56.514-23.142L-56.514 0L-61.734 0L-61.734-22.388Q-61.734-23.432 -62.082-23.751Q-62.43-24.07 -63.474-24.07L-63.474-24.07L-65.504-24.07Q-66.548-24.07 -66.983-23.606Q-67.418-23.142 -67.418-22.04L-67.418-22.04L-67.418 0L-72.638 0L-72.638-28.304L-67.418-28.304L-67.418-26.042Q-66.664-28.304 -63.822-28.304ZM-17.89-31.204L-17.89-24.94L-23.226-24.94L-23.226-30.508Q-23.226-31.552 -23.545-31.871Q-23.864-32.19 -24.908-32.19L-24.908-32.19L-27.866-32.19Q-28.91-32.19 -29.258-31.871Q-29.606-31.552 -29.606-30.508L-29.606-30.508L-29.606-5.742Q-29.606-4.698 -29.258-4.379Q-28.91-4.06 -27.866-4.06L-27.866-4.06L-24.908-4.06Q-23.864-4.06 -23.545-4.379Q-23.226-4.698 -23.226-5.742L-23.226-5.742L-23.226-11.252L-17.89-11.252L-17.89-5.104Q-17.89 0.058 -23.342 0.058L-23.342 0.058L-29.49 0.058Q-34.884 0.058 -34.884-5.104L-34.884-5.104L-34.884-31.204Q-34.884-36.308 -29.49-36.308L-29.49-36.308L-23.342-36.308Q-17.89-36.308 -17.89-31.204L-17.89-31.204ZM-4.146-28.304L-4.146-28.304L 2.06-28.304Q 7.454-28.304  7.454-23.142L 7.454-23.142L 7.454-5.104Q 7.454 0  2.06 0L 2.06 0L-4.146 0Q-9.482 0 -9.482-5.104L-9.482-5.104L-9.482-23.142Q-9.482-28.304 -4.146-28.304ZM 2.292-5.858L 2.292-5.858L 2.292-22.446Q 2.292-23.49  1.944-23.838Q 1.596-24.186  0.552-24.186L 0.552-24.186L-2.638-24.186Q-3.682-24.186 -4.001-23.838Q-4.32-23.49 -4.32-22.446L-4.32-22.446L-4.32-5.858Q-4.32-4.814 -4.001-4.466Q-3.682-4.118 -2.638-4.118L-2.638-4.118L 0.552-4.118Q 1.596-4.118  1.944-4.466Q 2.292-4.814  2.292-5.858ZM 21.488-38.802L 21.488 0L 16.268 0L 16.268-38.802L 21.488-38.802ZM 35.812-38.802L 35.812 0L 30.592 0L 30.592-38.802L 35.812-38.802ZM 50.194-28.304L 50.194-28.304L 55.878-28.304Q 61.33-28.304  61.33-23.142L 61.33-23.142L 61.33-12.528L 49.904-12.528L 49.904-5.8Q 49.904-4.814  50.252-4.466Q 50.6-4.118  51.644-4.118L 51.644-4.118L 54.312-4.118Q 55.356-4.118  55.704-4.466Q 56.052-4.814  56.052-5.858L 56.052-5.858L 56.052-8.178L 61.156-8.178L 61.156-5.104Q 61.156 0  55.762 0L 55.762 0L 50.194 0Q 44.8 0  44.8-5.104L 44.8-5.104L 44.8-23.142Q 44.8-28.304  50.194-28.304ZM 49.904-22.504L 49.904-16.356L 56.168-16.356L 56.168-22.504Q 56.168-23.49  55.849-23.838Q 55.53-24.186  54.486-24.186L 54.486-24.186L 51.644-24.186Q 50.6-24.186  50.252-23.838Q 49.904-23.49  49.904-22.504L 49.904-22.504ZM 85.804-23.142L 85.804-19.372L 80.642-19.372L 80.642-22.388Q 80.642-23.432  80.294-23.751Q 79.946-24.07  78.902-24.07L 78.902-24.07L 76.408-24.07Q 75.364-24.07  75.016-23.751Q 74.668-23.432  74.668-22.388L 74.668-22.388L 74.668-5.916Q 74.668-4.872  75.016-4.553Q 75.364-4.234  76.408-4.234L 76.408-4.234L 78.902-4.234Q 79.946-4.234  80.294-4.553Q 80.642-4.872  80.642-5.916L 80.642-5.916L 80.642-8.932L 85.804-8.932L 85.804-5.104Q 85.804 0  80.352 0L 80.352 0L 74.842 0Q 69.448 0  69.448-5.104L 69.448-5.104L 69.448-23.142Q 69.448-28.304  74.842-28.304L 74.842-28.304L 80.352-28.304Q 85.804-28.304  85.804-23.142L 85.804-23.142ZM 103.724-28.304L 103.724-24.07L 99.838-24.07L 99.838-6.148Q 99.838-5.104  100.157-4.785Q 100.476-4.466  101.52-4.466L 101.52-4.466L 103.724-4.466L 103.724 0L 100.012 0Q 94.56 0  94.56-5.104L 94.56-5.104L 94.56-24.07L 91.892-24.07L 91.892-28.304L 94.56-28.304L 94.56-33.118L 99.838-33.118L 99.838-28.304L 103.724-28.304ZM 116.192-33.698L 110.74-33.698L 110.74-38.86L 116.192-38.86L 116.192-33.698ZM 116.076-28.304L 116.076 0L 110.856 0L 110.856-28.304L 116.076-28.304ZM 130.226-28.304L 130.226-28.304L 136.432-28.304Q 141.826-28.304  141.826-23.142L 141.826-23.142L 141.826-5.104Q 141.826 0  136.432 0L 136.432 0L 130.226 0Q 124.89 0  124.89-5.104L 124.89-5.104L 124.89-23.142Q 124.89-28.304  130.226-28.304ZM 136.664-5.858L 136.664-5.858L 136.664-22.446Q 136.664-23.49  136.316-23.838Q 135.968-24.186  134.924-24.186L 134.924-24.186L 131.734-24.186Q 130.69-24.186  130.371-23.838Q 130.052-23.49  130.052-22.446L 130.052-22.446L 130.052-5.858Q 130.052-4.814  130.371-4.466Q 130.69-4.118  131.734-4.118L 131.734-4.118L 134.924-4.118Q 135.968-4.118  136.316-4.466Q 136.664-4.814  136.664-5.858ZM 159.456-28.304L 159.456-28.304L 161.486-28.304Q 166.764-28.304  166.764-23.142L 166.764-23.142L 166.764 0L 161.544 0L 161.544-22.388Q 161.544-23.432  161.196-23.751Q 160.848-24.07  159.804-24.07L 159.804-24.07L 157.774-24.07Q 156.73-24.07  156.295-23.606Q 155.86-23.142  155.86-22.04L 155.86-22.04L 155.86 0L 150.64 0L 150.64-28.304L 155.86-28.304L 155.86-26.042Q 156.614-28.304  159.456-28.304ZM 185.264-5.684L 185.264-5.684L 185.264-10.382Q 185.264-11.426  184.916-11.745Q 184.568-12.064  183.524-12.064L 183.524-12.064L 180.566-12.064Q 175.172-12.064  175.172-17.168L 175.172-17.168L 175.172-23.142Q 175.172-28.304  180.566-28.304L 180.566-28.304L 184.8-28.304Q 190.252-28.304  190.252-23.142L 190.252-23.142L 190.252-20.416L 185.148-20.416L 185.148-22.62Q 185.148-23.664  184.8-23.983Q 184.452-24.302  183.408-24.302L 183.408-24.302L 182.016-24.302Q 180.972-24.302  180.624-23.983Q 180.276-23.664  180.276-22.62L 180.276-22.62L 180.276-17.748Q 180.276-16.704  180.624-16.385Q 180.972-16.066  182.016-16.066L 182.016-16.066L 185.032-16.066Q 190.368-16.066  190.368-10.904L 190.368-10.904L 190.368-5.104Q 190.368 0  184.974 0L 184.974 0L 180.682 0Q 175.288 0  175.288-5.104L 175.288-5.104L 175.288-7.888L 180.392-7.888L 180.392-5.684Q 180.392-4.64  180.74-4.321Q 181.088-4.002  182.132-4.002L 182.132-4.002L 183.524-4.002Q 184.568-4.002  184.916-4.321Q 185.264-4.64  185.264-5.684Z" style=""></path></svg>